<svg width="16" height="18" viewBox="0 0 16 18" fill="none" xmlns="http://www.w3.org/2000/svg">
<path d="M3.4 1L1 4.2V15.4C1 15.8243 1.16857 16.2313 1.46863 16.5314C1.76869 16.8314 2.17565 17 2.6 17H13.8C14.2243 17 14.6313 16.8314 14.9314 16.5314C15.2314 16.2313 15.4 15.8243 15.4 15.4V4.2L13 1H3.4Z" stroke="#090F47" stroke-opacity="0.45" stroke-width="1.2" stroke-linecap="round" stroke-linejoin="round"/>
<path d="M1 4.19995H15.4" stroke="#090F47" stroke-opacity="0.45" stroke-width="1.2" stroke-linecap="round" stroke-linejoin="round"/>
<path d="M11.4 7.3999C11.4 8.2486 11.0629 9.06253 10.4627 9.66264C9.86263 10.2628 9.04869 10.5999 8.2 10.5999C7.35131 10.5999 6.53737 10.2628 5.93726 9.66264C5.33714 9.06253 5 8.2486 5 7.3999" stroke="#090F47" stroke-opacity="0.45" stroke-width="1.2" stroke-linecap="round" stroke-linejoin="round"/>
</svg>
